<svg width="21" height="21" viewBox="0 0 21 21" fill="none" xmlns="http://www.w3.org/2000/svg">
<path d="M8.07827 16.0248C6.08006 16.0248 4.08185 15.2574 2.56064 13.7229C-0.4818 10.654 -0.4818 5.6606 2.56064 2.59171C5.60307 -0.477184 10.5535 -0.477184 13.5959 2.59171C16.6383 5.6606 16.6383 10.654 13.5959 13.7229C12.0747 15.2574 10.0765 16.0248 8.07827 16.0248ZM8.07827 0.711651C6.18706 0.711651 4.29585 1.43789 2.8563 2.88995C-0.0231889 5.79448 -0.0231889 10.5202 2.8563 13.4247C5.73539 16.3288 10.4211 16.3288 13.3002 13.4247C16.1797 10.5202 16.1797 5.79448 13.3002 2.88995C11.8607 1.43789 9.96948 0.711651 8.07827 0.711651Z" fill="white"/>
<path d="M14.6296 14.9761C14.5761 14.9761 14.5226 14.9555 14.4817 14.9143L13.2966 13.7193C13.2149 13.6369 13.2149 13.5034 13.2966 13.421C13.3783 13.3387 13.5106 13.3387 13.5923 13.421L14.7774 14.6161C14.8591 14.6984 14.8591 14.8319 14.7774 14.9143C14.7366 14.9555 14.6831 14.9761 14.6296 14.9761Z" fill="white"/>
<path d="M19.2478 20.9099C18.8541 20.9099 18.4841 20.755 18.206 20.4744L13.5876 15.8163C13.5059 15.7339 13.5059 15.6005 13.5876 15.5181L15.3755 13.7142C15.4539 13.6351 15.5928 13.6351 15.6712 13.7142L20.2896 18.3728C20.5677 18.6533 20.7212 19.0265 20.7212 19.4236C20.7212 19.8207 20.5677 20.1939 20.2896 20.4744C20.0115 20.755 19.6415 20.9099 19.2478 20.9099ZM14.0311 15.6672L18.5017 20.1762C18.9002 20.5782 19.5953 20.5782 19.9939 20.1762C20.1932 19.9752 20.303 19.7078 20.303 19.4236C20.303 19.1394 20.1932 18.872 19.9939 18.671L15.5233 14.1616L14.0311 15.6672Z" fill="white"/>
<path d="M8.07806 11.6732C7.05956 11.6732 6.23096 10.8374 6.23096 9.80962C6.23096 9.69305 6.32448 9.59871 6.44005 9.59871C6.55562 9.59871 6.64914 9.69305 6.64914 9.80962C6.64914 10.6047 7.2903 11.2514 8.07806 11.2514C8.86624 11.2514 9.5074 10.6047 9.5074 9.80962C9.5074 9.11881 9.07492 8.69823 8.01476 8.35839C6.81453 7.97282 6.23096 7.36645 6.23096 6.50469C6.23096 5.47692 7.05956 4.64111 8.07806 4.64111C9.09697 4.64111 9.92558 5.47692 9.92558 6.50469C9.92558 6.62127 9.83206 6.7156 9.71649 6.7156C9.60091 6.7156 9.5074 6.62127 9.5074 6.50469C9.5074 5.70966 8.86624 5.06293 8.07806 5.06293C7.2903 5.06293 6.64914 5.70966 6.64914 6.50469C6.64914 7.16832 7.12327 7.62927 8.14136 7.95634C8.97201 8.22245 9.92558 8.67393 9.92558 9.80962C9.92558 10.8374 9.09697 11.6732 8.07806 11.6732Z" fill="white"/>
<path d="M8.07823 5.0629C7.96266 5.0629 7.86914 4.96857 7.86914 4.85199V4.06149C7.86914 3.94492 7.96266 3.85059 8.07823 3.85059C8.1938 3.85059 8.28732 3.94492 8.28732 4.06149V4.85199C8.28732 4.96857 8.1938 5.0629 8.07823 5.0629Z" fill="white"/>
<path d="M8.07823 12.4637C7.96266 12.4637 7.86914 12.3693 7.86914 12.2527V11.4623C7.86914 11.3457 7.96266 11.2513 8.07823 11.2513C8.1938 11.2513 8.28732 11.3457 8.28732 11.4623V12.2527C8.28732 12.3693 8.1938 12.4637 8.07823 12.4637Z" fill="white"/>
</svg>
