<svg width="16" height="21" viewBox="0 0 16 21" fill="none" xmlns="http://www.w3.org/2000/svg">
<path d="M15.404 2.59998H13.5002V0.799976C13.5002 0.689496 13.4054 0.599976 13.2886 0.599976H0.596304C0.479493 0.599976 0.384766 0.689496 0.384766 0.799976V18C0.384766 18.1105 0.479493 18.2 0.596304 18.2H3.76938V20C3.76938 20.1105 3.86411 20.2 3.98092 20.2H15.404C15.5208 20.2 15.6155 20.1105 15.6155 20V2.79998C15.6155 2.6895 15.5208 2.59998 15.404 2.59998ZM0.807843 0.999976H13.0771V17.8H0.807843V0.999976ZM15.1925 19.8H4.19246V18.2H13.2886C13.4054 18.2 13.5002 18.1105 13.5002 18V2.99998H15.1925V19.8Z" fill="white"/>
<path d="M9.90395 14.8001C9.90395 14.7192 9.85242 14.6462 9.77339 14.6153C9.69431 14.5843 9.60335 14.6014 9.54285 14.6587L7.85054 16.2587C7.76792 16.3367 7.76792 16.4634 7.85054 16.5415C7.93317 16.6196 8.06708 16.6196 8.1497 16.5415L9.48087 15.2829V16.4001C9.48087 16.4809 9.5324 16.5539 9.61143 16.5848C9.63762 16.5951 9.66512 16.6001 9.69237 16.6001C9.74741 16.6001 9.80152 16.5797 9.84201 16.5415L11.3847 15.0829V16.0001C11.3847 16.1105 11.4794 16.2001 11.5963 16.2001C11.7131 16.2001 11.8078 16.1105 11.8078 16.0001V14.6001C11.8078 14.5192 11.7563 14.4462 11.6772 14.4153C11.5982 14.3843 11.5072 14.4014 11.4467 14.4587L9.90395 15.9172V14.8001Z" fill="white"/>
<path d="M2.71154 3.80002H7.78846C7.90527 3.80002 8 3.7105 8 3.60002C8 3.48954 7.90527 3.40002 7.78846 3.40002H2.71154C2.59473 3.40002 2.5 3.48954 2.5 3.60002C2.5 3.7105 2.59473 3.80002 2.71154 3.80002Z" fill="white"/>
<path d="M2.71154 5.80002H11.1731C11.2899 5.80002 11.3846 5.7105 11.3846 5.60002C11.3846 5.48954 11.2899 5.40002 11.1731 5.40002H2.71154C2.59473 5.40002 2.5 5.48954 2.5 5.60002C2.5 5.7105 2.59473 5.80002 2.71154 5.80002Z" fill="white"/>
<path d="M2.71154 7.7999H11.1731C11.2899 7.7999 11.3846 7.71038 11.3846 7.5999C11.3846 7.48942 11.2899 7.3999 11.1731 7.3999H2.71154C2.59473 7.3999 2.5 7.48942 2.5 7.5999C2.5 7.71038 2.59473 7.7999 2.71154 7.7999Z" fill="white"/>
<path d="M2.71154 9.80002H11.1731C11.2899 9.80002 11.3846 9.7105 11.3846 9.60002C11.3846 9.48954 11.2899 9.40002 11.1731 9.40002H2.71154C2.59473 9.40002 2.5 9.48954 2.5 9.60002C2.5 9.7105 2.59473 9.80002 2.71154 9.80002Z" fill="white"/>
<path d="M11.3846 11.6C11.3846 11.4895 11.2899 11.4 11.1731 11.4H2.71154C2.59473 11.4 2.5 11.4895 2.5 11.6C2.5 11.7105 2.59473 11.8 2.71154 11.8H11.1731C11.2899 11.8 11.3846 11.7105 11.3846 11.6Z" fill="white"/>
</svg>
