<?xml version="1.0" standalone="no"?>
<!DOCTYPE svg PUBLIC "-//W3C//DTD SVG 20010904//EN"
 "http://www.w3.org/TR/2001/REC-SVG-20010904/DTD/svg10.dtd">
<svg version="1.0" xmlns="http://www.w3.org/2000/svg"
 width="11.3px" height="11.3px" viewBox="0 0 1140.000000 1280.000000"
 preserveAspectRatio="xMidYMid meet">
<g transform="translate(0.000000,1280.000000) scale(0.100000,-0.100000)"
fill="#fff" stroke="none">
<path d="M2230 12788 c-432 -52 -642 -106 -918 -238 -448 -215 -774 -569 -912
-991 -165 -503 -279 -1485 -345 -2959 -63 -1418 -63 -2982 0 -4400 66 -1474
180 -2456 345 -2959 179 -548 667 -969 1330 -1145 129 -34 233 -52 438 -76
215 -25 259 -25 474 0 213 25 262 33 408 70 681 172 1173 592 1360 1160 155
472 271 1444 335 2815 67 1432 67 3238 0 4670 -64 1371 -180 2343 -335 2815
-187 568 -679 988 -1360 1160 -146 37 -195 45 -408 70 -182 21 -288 23 -412 8z"/>
<path d="M8820 12788 c-311 -37 -483 -72 -670 -136 -575 -197 -994 -595 -1160
-1102 -155 -472 -271 -1444 -335 -2815 -67 -1432 -67 -3238 0 -4670 64 -1371
180 -2343 335 -2815 187 -568 679 -988 1360 -1160 146 -37 195 -45 408 -70
215 -25 259 -25 474 0 205 24 309 42 438 76 663 176 1151 597 1330 1145 165
503 279 1485 345 2959 63 1418 63 2982 0 4400 -66 1474 -180 2456 -345 2959
-179 548 -667 969 -1330 1145 -129 34 -233 52 -438 76 -182 21 -288 23 -412 8z"/>
</g>
</svg>
