<svg width="17" height="20" viewBox="0 0 17 20" fill="none"
                                 xmlns="http://www.w3.org/2000/svg">
                                 <g clip-path="url(#clip0_75_186)">
                                    <path fill-rule="evenodd" clip-rule="evenodd"
                                       d="M4.14239 4.83189L8.66663 0.513562C8.78224 0.40343 8.97413 0.48458 8.97413 0.643981V15.4992C8.97413 15.6586 8.78224 15.7398 8.66663 15.6296L4.14239 11.3113C3.90095 11.0809 3.61336 10.9659 3.27913 10.9659H0.181688C0.081614 10.9659 0 10.8848 0 10.7853V5.35743C0 5.25793 0.081614 5.17678 0.181688 5.17678H3.27913C3.61336 5.17678 3.90095 5.06181 4.14239 4.83141V4.83189Z"
                                       fill="#BFB1E3" />
                                    <path
                                       d="M11.2886 0.526367C12.5968 0.896854 13.7666 1.59436 14.7023 2.52468C17.7657 5.57069 17.7657 10.5701 14.7023 13.6156C13.7666 14.546 12.5968 15.2439 11.2886 15.6139V14.3339C12.2573 14.003 13.1249 13.4567 13.8337 12.752C16.4201 10.1808 16.4201 5.95954 13.8337 3.38883C13.1249 2.68408 12.2573 2.13729 11.2886 1.80689V0.526367Z"
                                       fill="#BFB1E3" />
                                    <path fill-rule="evenodd" clip-rule="evenodd"
                                       d="M11.2886 4.05078C14.491 5.75831 14.491 10.3834 11.2886 12.0909V4.05078Z"
                                       fill="#BFB1E3" />
                                 </g>
                                 <defs>
                                    <clipPath id="clip0_75_186">
                                       <rect width="17" height="19.0219" fill="white"
                                          transform="translate(0 0.461914)" />
                                    </clipPath>
                                 </defs>
                              </svg>