<svg width="15" height="21" viewBox="0 0 15 21" fill="none" xmlns="http://www.w3.org/2000/svg">
<path d="M0.327047 0.623946C0.273786 0.634197 0.225828 0.663098 0.191636 0.705546C0.157444 0.747994 0.139217 0.801262 0.140172 0.855946V20.3439C0.140179 20.4055 0.164413 20.4645 0.207545 20.508C0.250677 20.5515 0.309175 20.5759 0.370172 20.5759H14.6302C14.6912 20.5759 14.7497 20.5515 14.7928 20.508C14.8359 20.4645 14.8602 20.4055 14.8602 20.3439V4.56795C14.8609 4.53722 14.8555 4.50665 14.8444 4.47802C14.8333 4.4494 14.8167 4.42328 14.7955 4.4012L11.1155 0.689196C11.0936 0.667817 11.0677 0.651039 11.0393 0.639837C11.0109 0.628636 10.9806 0.623235 10.9502 0.623946H0.370172C0.355829 0.622584 0.341391 0.622584 0.327047 0.623946ZM0.600172 1.08795H10.7202V4.56795C10.7202 4.62948 10.7444 4.68848 10.7875 4.73199C10.8307 4.7755 10.8892 4.79994 10.9502 4.79995H14.4002V20.1119H0.600172V1.08795ZM11.1802 1.4142L14.0767 4.33595H11.1802V1.4142ZM2.39705 5.95995C2.33605 5.96572 2.27982 5.99569 2.24073 6.04328C2.20164 6.09086 2.18289 6.15217 2.18861 6.2137C2.19433 6.27523 2.22405 6.33195 2.27122 6.37138C2.3184 6.4108 2.37917 6.42972 2.44017 6.42395H7.50017C7.53065 6.42438 7.56091 6.4187 7.58919 6.40724C7.61748 6.39577 7.64322 6.37875 7.66492 6.35717C7.68663 6.33558 7.70386 6.30986 7.71563 6.2815C7.72739 6.25313 7.73345 6.22269 7.73345 6.19195C7.73345 6.1612 7.72739 6.13076 7.71563 6.1024C7.70386 6.07403 7.68663 6.04831 7.66492 6.02673C7.64322 6.00514 7.61748 5.98812 7.58919 5.97666C7.56091 5.96519 7.53065 5.95951 7.50017 5.95995H2.44017C2.42583 5.95858 2.41139 5.95858 2.39705 5.95995ZM2.39705 8.51195C2.33605 8.51771 2.27982 8.54769 2.24073 8.59528C2.20164 8.64286 2.18289 8.70417 2.18861 8.7657C2.19433 8.82723 2.22405 8.88395 2.27122 8.92338C2.3184 8.9628 2.37917 8.98171 2.44017 8.97595H12.5602C12.5907 8.97638 12.6209 8.9707 12.6492 8.95924C12.6775 8.94777 12.7032 8.93075 12.7249 8.90917C12.7466 8.88758 12.7639 8.86186 12.7756 8.8335C12.7874 8.80513 12.7934 8.77469 12.7934 8.74395C12.7934 8.7132 12.7874 8.68276 12.7756 8.6544C12.7639 8.62603 12.7466 8.60031 12.7249 8.57873C12.7032 8.55714 12.6775 8.54012 12.6492 8.52866C12.6209 8.51719 12.5907 8.51151 12.5602 8.51195H2.44017C2.42583 8.51058 2.41139 8.51058 2.39705 8.51195ZM2.39705 11.0639C2.33605 11.0697 2.27982 11.0997 2.24073 11.1473C2.20164 11.1949 2.18289 11.2562 2.18861 11.3177C2.19433 11.3792 2.22405 11.4359 2.27122 11.4754C2.3184 11.5148 2.37917 11.5337 2.44017 11.5279H12.5602C12.5907 11.5284 12.6209 11.5227 12.6492 11.5112C12.6775 11.4998 12.7032 11.4828 12.7249 11.4612C12.7466 11.4396 12.7639 11.4139 12.7756 11.3855C12.7874 11.3571 12.7934 11.3267 12.7934 11.2959C12.7934 11.2652 12.7874 11.2348 12.7756 11.2064C12.7639 11.178 12.7466 11.1523 12.7249 11.1307C12.7032 11.1091 12.6775 11.0921 12.6492 11.0807C12.6209 11.0692 12.5907 11.0635 12.5602 11.0639H2.44017C2.42583 11.0626 2.41139 11.0626 2.39705 11.0639ZM2.39705 13.6159C2.33605 13.6217 2.27982 13.6517 2.24073 13.6993C2.20164 13.7469 2.18289 13.8082 2.18861 13.8697C2.19433 13.9312 2.22405 13.9879 2.27122 14.0274C2.3184 14.0668 2.37917 14.0857 2.44017 14.0799H12.5602C12.5907 14.0804 12.6209 14.0747 12.6492 14.0632C12.6775 14.0518 12.7032 14.0348 12.7249 14.0132C12.7466 13.9916 12.7639 13.9659 12.7756 13.9375C12.7874 13.9091 12.7934 13.8787 12.7934 13.8479C12.7934 13.8172 12.7874 13.7868 12.7756 13.7584C12.7639 13.73 12.7466 13.7043 12.7249 13.6827C12.7032 13.6611 12.6775 13.6441 12.6492 13.6327C12.6209 13.6212 12.5907 13.6155 12.5602 13.6159H2.44017C2.42583 13.6146 2.41139 13.6146 2.39705 13.6159ZM2.39705 16.1679C2.33605 16.1737 2.27982 16.2037 2.24073 16.2513C2.20164 16.2989 2.18289 16.3602 2.18861 16.4217C2.19433 16.4832 2.22405 16.5399 2.27122 16.5794C2.3184 16.6188 2.37917 16.6377 2.44017 16.6319H12.5602C12.5907 16.6324 12.6209 16.6267 12.6492 16.6152C12.6775 16.6038 12.7032 16.5868 12.7249 16.5652C12.7466 16.5436 12.7639 16.5179 12.7756 16.4895C12.7874 16.4611 12.7934 16.4307 12.7934 16.3999C12.7934 16.3692 12.7874 16.3388 12.7756 16.3104C12.7639 16.282 12.7466 16.2563 12.7249 16.2347C12.7032 16.2131 12.6775 16.1961 12.6492 16.1847C12.6209 16.1732 12.5907 16.1675 12.5602 16.1679H2.44017C2.42583 16.1666 2.41139 16.1666 2.39705 16.1679Z" fill="white"/>
</svg>
